<?xml version="1.0" encoding="UTF-8"?>
<svg width="177px" height="33px" viewBox="0 0 177 33" version="1.1" xmlns="http://www.w3.org/2000/svg" xmlns:xlink="http://www.w3.org/1999/xlink">
    <!-- Generator: Sketch 47.1 (45422) - http://www.bohemiancoding.com/sketch -->
    <title>White CMYK</title>
    <desc>Created with Sketch.</desc>
    <defs>
        <polygon id="path-1" points="32.3082097 32.6267281 0 32.6267281 0 0.317091014 32.3082097 0.317091014"></polygon>
    </defs>
    <g id="Frontpage-Desktop" stroke="none" stroke-width="1" fill="none" fill-rule="evenodd">
        <g id="Desktop-frontpage-v2" transform="translate(-50.000000, -18.000000)">
            <g id="#1-Top-nav">
                <g id="White-CMYK" transform="translate(50.000000, 18.000000)">
                    <g id="Group-3">
                        <mask id="mask-2" fill="white">
                            <use xlink:href="#path-1"></use>
                        </mask>
                        <g id="Clip-2"></g>
                        <path d="M10.0531106,29.3852627 C8.17299539,31.2653779 5.12321198,31.2653779 3.24146544,29.3852627 C1.36053456,27.5051475 1.36053456,24.4553641 3.24146544,22.5728018 L6.96988479,18.8460138 L5.74067281,17.6176175 L1.8597235,21.5001982 C-0.619907834,23.9773825 -0.619907834,27.9969954 1.8597235,30.4758111 L2.15091705,30.7678203 C4.62973272,33.2466359 8.64771429,33.2466359 11.12653,30.7678203 L15.0091106,26.884424 L13.7807143,25.6560276 L10.0531106,29.3852627 Z M30.448894,11.4438249 C32.9277097,8.96500922 32.9277097,4.94539631 30.448894,2.46658065 L30.1577005,2.17620276 C27.6788848,-0.302612903 23.6609032,-0.302612903 21.1820876,2.17620276 L17.2995069,6.05796774 L26.5679447,15.3247742 L30.448894,11.4438249 Z M30.448894,21.4985668 L11.12653,2.17620276 C8.64771429,-0.302612903 4.62810138,-0.302612903 2.14928571,2.17620276 L1.85809217,2.46658065 C-0.619907834,4.94539631 -0.619907834,8.96582488 1.8597235,11.4438249 L21.1820876,30.7678203 C23.6609032,33.2466359 27.6797005,33.2466359 30.1593318,30.7661889 L30.4505253,30.4758111 C32.9277097,27.9969954 32.9277097,23.9773825 30.448894,21.4985668 L30.448894,21.4985668 Z M29.0671521,29.3836313 C27.1862212,31.2653779 24.1372535,31.2653779 22.2571382,29.3836313 L17.3745484,24.5198018 L24.1853779,17.7081567 L29.0671521,22.5728018 C30.9480829,24.4545484 30.9480829,27.5035161 29.0671521,29.3836313 L29.0671521,29.3836313 Z" id="Fill-1" fill="#FFFFFE" mask="url(#mask-2)"></path>
                    </g>
                    <path d="M173.891488,3.34179263 C174.014654,3.24064977 174.075829,3.07425346 174.075829,2.84341935 C174.075829,2.61340092 174.013023,2.45271429 173.88741,2.36299078 C173.761797,2.27408295 173.539935,2.22840553 173.223456,2.22840553 L172.477935,2.22840553 L172.477935,3.49513825 L173.204696,3.49513825 C173.539935,3.49513825 173.769138,3.44375115 173.891488,3.34179263 Z M174.676977,2.84831336 C174.676977,3.42906912 174.422488,3.79448848 173.914327,3.94294009 L174.848267,5.20967281 L174.092959,5.20967281 L173.249558,4.03347926 L172.477935,4.03347926 L172.477935,5.20967281 L171.867,5.20967281 L171.867,1.69903687 L173.186751,1.69903687 C173.719382,1.69903687 174.101115,1.79039171 174.331134,1.97310138 C174.561968,2.15581106 174.676977,2.44700461 174.676977,2.84831336 Z M175.130488,5.49678802 C175.683512,4.93397696 175.960839,4.26023502 175.960839,3.47637788 C175.960839,2.69252074 175.68759,2.02285714 175.139461,1.46575576 C174.591332,0.909470046 173.920037,0.630511521 173.123945,0.630511521 C172.327853,0.630511521 171.654926,0.911101382 171.10435,1.47064977 C170.553774,2.03019816 170.278078,2.70312442 170.278078,3.49024424 C170.278078,4.27736406 170.550512,4.94865899 171.095378,5.5049447 C171.640244,6.06204608 172.309908,6.34018894 173.106,6.34018894 C173.902092,6.34018894 174.57665,6.05878341 175.130488,5.49678802 Z M175.404553,1.17782488 C176.039143,1.81323041 176.355622,2.57588018 176.355622,3.46740553 C176.355622,4.35974654 176.039143,5.12565899 175.404553,5.76595853 C174.769963,6.40625806 174.000788,6.726 173.097843,6.726 C172.193267,6.726 171.427355,6.40870507 170.79929,5.77493088 C170.171226,5.14034101 169.856378,4.37687558 169.856378,3.48535023 C169.856378,2.59382488 170.173673,1.82791244 170.808263,1.1876129 C171.442037,0.546497696 172.208765,0.22675576 173.106,0.22675576 C174.004051,0.22675576 174.769963,0.544050691 175.404553,1.17782488 L175.404553,1.17782488 Z" id="Fill-5" fill="#FFFFFE"></path>
                    <path d="M54.8349263,10.420977 L54.8349263,5.82958065 L37.693659,5.82958065 L37.693659,10.420977 L43.342977,10.420977 L43.342977,25.2180138 L49.1586912,25.2180138 L49.1586912,10.420977 L54.8349263,10.420977 Z M61.4377604,9.95033641 C59.0715069,9.95033641 56.6236866,10.5033594 54.147318,11.4992903 L55.5388479,15.204871 C57.2085207,14.4854516 58.9051106,14.1257419 60.1008802,14.1257419 C61.8260184,14.1257419 62.7167281,14.8737097 62.7167281,16.1184194 L62.7167281,16.1738848 L59.0160415,16.1738848 C55.204424,16.2293502 53.1734101,17.8337696 53.1734101,20.7375484 C53.1734101,23.558129 55.0649447,25.4667926 58.2933594,25.4667926 C60.2958249,25.4667926 61.7991014,24.775106 62.7167281,23.558129 L62.7167281,25.2180138 L68.2265668,25.2180138 L68.2265668,15.4544654 C68.2265668,11.9699309 65.6947327,9.95033641 61.4377604,9.95033641 L61.4377604,9.95033641 Z M60.1563456,21.8158618 C59.0715069,21.8158618 58.4597558,21.2628387 58.4597558,20.3207419 C58.4597558,19.3827235 59.0445899,18.9112673 60.1563456,18.9112673 L62.7167281,18.9112673 L62.7167281,20.2669078 C62.2999217,21.2073733 61.2982811,21.8158618 60.1563456,21.8158618 L60.1563456,21.8158618 Z M77.0268111,19.991212 L79.7821382,25.2180138 L86.4322811,25.2180138 L80.866977,15.9805714 L86.4053641,10.1721982 L80.0610968,10.1721982 L75.8865069,14.6803963 L75.8865069,4.69661751 L70.2657373,4.69661751 L70.2657373,25.2180138 L75.8865069,25.2180138 L75.8865069,21.1804562 L77.0268111,19.991212 Z M93.0913963,9.97888479 C88.305871,9.97888479 85.1051889,13.0474286 85.1051889,17.7497558 C85.1051889,22.3672535 88.1933088,25.4113272 93.2577926,25.4113272 C96.123235,25.4113272 98.4062903,24.4423134 99.990318,22.7000461 L97.0694101,19.8517327 C96.0677696,20.7644654 94.9274654,21.2897558 93.7316959,21.2897558 C92.2830691,21.2897558 91.2267788,20.4887696 90.781424,19.0499309 L100.965857,19.0499309 C101.29865,13.5188848 98.4062903,9.97888479 93.0913963,9.97888479 L93.0913963,9.97888479 Z M90.6704931,16.3117327 C90.9478203,14.7896959 91.83853,13.7676636 93.1452304,13.7676636 C94.5090276,13.7676636 95.4552028,14.8182442 95.4282857,16.3117327 L90.6704931,16.3117327 Z M102.086585,5.82958065 L102.086585,25.2180138 L110.434134,25.2180138 C116.862415,25.2180138 121.119387,21.3452212 121.119387,15.5099309 C121.119387,9.67382488 116.944797,5.82958065 110.629078,5.82958065 L102.086585,5.82958065 Z M107.873751,10.3655115 L110.518147,10.3655115 C113.299576,10.3655115 115.219659,12.4405714 115.219659,15.5653963 C115.219659,18.6624885 113.439055,20.709 110.795475,20.709 L107.873751,20.709 L107.873751,10.3655115 Z M129.391078,9.95033641 C127.025641,9.95033641 124.577005,10.5033594 122.100636,11.4992903 L123.49135,15.204871 C125.161023,14.4854516 126.859244,14.1257419 128.055829,14.1257419 C129.780968,14.1257419 130.670862,14.8737097 130.670862,16.1184194 L130.670862,16.1738848 L126.970175,16.1738848 C123.158558,16.2293502 121.127544,17.8337696 121.127544,20.7375484 C121.127544,23.558129 123.019078,25.4667926 126.246677,25.4667926 C128.249959,25.4667926 129.754051,24.775106 130.670862,23.558129 L130.670862,25.2180138 L136.1807,25.2180138 L136.1807,15.4544654 C136.1807,11.9699309 133.648866,9.95033641 129.391078,9.95033641 L129.391078,9.95033641 Z M128.111295,21.8158618 C127.025641,21.8158618 126.413889,21.2628387 126.413889,20.3207419 C126.413889,19.3827235 126.998724,18.9112673 128.111295,18.9112673 L130.670862,18.9112673 L130.670862,20.2669078 C130.254055,21.2073733 129.251599,21.8158618 128.111295,21.8158618 L128.111295,21.8158618 Z M140.919733,3.00818433 C139.221512,3.00818433 138.025742,4.19824424 138.025742,5.88504608 C138.025742,7.57184793 139.221512,8.76109217 140.919733,8.76109217 C142.616323,8.76109217 143.813724,7.57184793 143.813724,5.88504608 C143.813724,4.19824424 142.616323,3.00818433 140.919733,3.00818433 L140.919733,3.00818433 Z M138.081207,25.2180138 L143.702793,25.2180138 L143.702793,10.1721982 L138.081207,10.1721982 L138.081207,25.2180138 Z M146.15877,25.2180138 L151.779539,25.2180138 L151.779539,4.69661751 L146.15877,4.69661751 L146.15877,25.2180138 Z M169.624728,10.1721982 L164.030876,10.1721982 L161.220899,19.3827235 L157.909286,10.1721982 L152.149853,10.1721982 L158.410106,24.8028387 L158.131147,25.3289447 C157.798355,25.9912673 157.241253,26.2955115 156.490023,26.2955115 C155.737977,26.2955115 155.153143,26.0467327 154.459009,25.4382442 L152.121304,29.1715576 C153.624581,30.3061521 155.126226,30.8314424 156.990843,30.8314424 C160.022682,30.8314424 162.083876,29.4472535 163.279645,26.4896406 L169.624728,10.1721982 L169.624728,10.1721982 Z" id="Fill-4" fill="#FFFFFE"></path>
                </g>
            </g>
        </g>
    </g>
</svg>