<?xml version="1.0" encoding="UTF-8" standalone="no"?>
<svg width="24px" height="20px" viewBox="0 0 24 20" version="1.1" xmlns="http://www.w3.org/2000/svg" xmlns:xlink="http://www.w3.org/1999/xlink" xmlns:sketch="http://www.bohemiancoding.com/sketch/ns">
    <!-- Generator: Sketch 3.5.1 (25234) - http://www.bohemiancoding.com/sketch -->
    <title>icon-twitter</title>
    <desc>Created with Sketch.</desc>
    <defs></defs>
    <g id="Page-1" stroke="none" stroke-width="1" fill="none" fill-rule="evenodd" sketch:type="MSPage">
        <g id="icon-assets" sketch:type="MSArtboardGroup" transform="translate(-551.000000, -325.000000)" fill="#AAAAAA">
            <path d="M575,327.366923 C574.117029,327.769231 573.168792,328.040769 572.171793,328.161538 C573.188297,327.536923 573.969242,326.547692 574.337584,325.369231 C573.385596,325.946923 572.332333,326.368462 571.210803,326.593846 C570.312078,325.613077 569.032258,325 567.615154,325 C564.895724,325 562.692423,327.26 562.692423,330.048462 C562.692423,330.443846 562.735184,330.83 562.819205,331.199231 C558.726932,330.988462 555.099025,328.978462 552.669917,325.923846 C552.246812,326.67 552.003751,327.536923 552.003751,328.462308 C552.003751,330.214615 552.873218,331.759231 554.193548,332.665385 C553.387097,332.638462 552.627907,332.412308 551.963991,332.033846 C551.963241,332.054615 551.963241,332.076923 551.963241,332.096923 C551.963241,334.543846 553.660165,336.584615 555.912978,337.048462 C555.500375,337.163077 555.065266,337.225385 554.615904,337.225385 C554.297824,337.225385 553.990248,337.193846 553.690173,337.135385 C554.315829,339.14 556.135034,340.6 558.288822,340.641538 C556.604651,341.995385 554.48162,342.803846 552.174794,342.803846 C551.777194,342.803846 551.384846,342.78 551,342.733077 C553.178545,344.163846 555.766692,345 558.547637,345 C567.603901,345 572.557389,337.306923 572.557389,330.634615 C572.557389,330.416154 572.551388,330.197692 572.542386,329.980769 C573.504876,329.269231 574.339085,328.380769 575,327.366923 L575,327.366923 Z" id="icon-twitter" sketch:type="MSShapeGroup"></path>
        </g>
    </g>
</svg>