<?xml version="1.0" encoding="UTF-8" standalone="no"?>
<svg width="22px" height="42px" viewBox="0 0 22 42" version="1.1" xmlns="http://www.w3.org/2000/svg" xmlns:xlink="http://www.w3.org/1999/xlink">
    <!-- Generator: Sketch 3.6.1 (26313) - http://www.bohemiancoding.com/sketch -->
    <title>icon-arrow-left-grey</title>
    <desc>Created with Sketch.</desc>
    <defs></defs>
    <g id="Assets" stroke="none" stroke-width="1" fill="none" fill-rule="evenodd">
        <g id="Artboard-29" transform="translate(-76.000000, -272.000000)" fill="#DDDDDD">
            <path d="M97.5733349,292.183747 L77.6679964,272.278408 C77.2823394,271.892751 76.670369,271.899067 76.2890218,272.280414 C75.905016,272.66442 75.9067768,273.279149 76.2870162,273.659388 L95.6281493,293.000521 L76.2870162,312.341655 C75.9013593,312.727312 75.9076747,313.339282 76.2890218,313.720629 C76.6730277,314.104635 77.2877569,314.102874 77.6679964,313.722635 L97.5730346,293.817597 C97.6215366,293.784026 97.6677398,293.745608 97.7109782,293.70237 C97.8932567,293.520092 97.9886151,293.285827 97.997833,293.049332 C98.0142106,292.779867 97.9176929,292.505388 97.7109782,292.298673 C97.6677944,292.255489 97.6216928,292.217184 97.5733349,292.183747 Z" id="icon-arrow-left-grey" transform="translate(87.000000, 293.000000) scale(-1, 1) translate(-87.000000, -293.000000) "></path>
        </g>
    </g>
</svg>