<?xml version="1.0" encoding="UTF-8" standalone="no"?>
<svg width="24px" height="24px" viewBox="0 0 24 24" version="1.1" xmlns="http://www.w3.org/2000/svg" xmlns:xlink="http://www.w3.org/1999/xlink" xmlns:sketch="http://www.bohemiancoding.com/sketch/ns">
    <!-- Generator: Sketch 3.5.1 (25234) - http://www.bohemiancoding.com/sketch -->
    <title>icon-facebook</title>
    <desc>Created with Sketch.</desc>
    <defs></defs>
    <g id="Page-1" stroke="none" stroke-width="1" fill="none" fill-rule="evenodd" sketch:type="MSPage">
        <g id="icon-assets" sketch:type="MSArtboardGroup" transform="translate(-463.000000, -323.000000)" fill="#AAAAAA">
            <path d="M487,345.5 C487,346.328 486.328,347 485.5,347 L464.5,347 C463.672,347 463,346.328 463,345.5 L463,324.5 C463,323.672 463.672,323 464.5,323 L485.5,323 C486.328,323 487,323.672 487,324.5 L487,345.5 Z M479.5,347 L479.5,338 L482.5,338 L483.25,334.25 L479.5,334.25 L479.5,332.75 C479.5,331.25 480.2515,330.5 481.75,330.5 L483.25,330.5 L483.25,326.75 L480.25,326.75 C477.49375,326.75 475.75,328.91075 475.75,332 L475.75,334.25 L472.75,334.25 L472.75,338 L475.75,338 L475.75,347 L479.5,347 Z" id="icon-facebook" sketch:type="MSShapeGroup"></path>
        </g>
    </g>
</svg>