<?xml version="1.0" encoding="UTF-8" standalone="no"?>
<svg width="24px" height="24px" viewBox="0 0 24 24" version="1.1" xmlns="http://www.w3.org/2000/svg" xmlns:xlink="http://www.w3.org/1999/xlink" xmlns:sketch="http://www.bohemiancoding.com/sketch/ns">
    <!-- Generator: Sketch 3.5.1 (25234) - http://www.bohemiancoding.com/sketch -->
    <title>icon-instagram</title>
    <desc>Created with Sketch.</desc>
    <defs></defs>
    <g id="Page-1" stroke="none" stroke-width="1" fill="none" fill-rule="evenodd" sketch:type="MSPage">
        <g id="icon-assets" sketch:type="MSArtboardGroup" transform="translate(-507.000000, -323.000000)" fill="#AAAAAA">
            <path d="M528,323 L510,323 C508.30575,323 507,324.30575 507,326 L507,344 C507,345.6935 508.30575,347 510,347 L528,347 C529.6935,347 531,345.6935 531,344 L531,326 C531,324.30575 529.6935,323 528,323 L528,323 Z M519.01725,330.2855 C521.679,330.2855 523.836,332.37575 523.836,334.955 C523.836,337.53275 521.679,339.6245 519.01725,339.6245 C516.35775,339.6245 514.2,337.53275 514.2,334.955 C514.20075,332.37575 516.3585,330.2855 519.01725,330.2855 L519.01725,330.2855 Z M528,343.25 C528,343.77575 527.775,344 527.25,344 L510.75,344 C510.22575,344 510,343.77575 510,343.25 L510,332.75 L511.86975,333.1565 C511.6695,333.809 511.56,334.499 511.56,335.21525 C511.56,339.20375 514.9005,342.44075 519.01725,342.44075 C523.13625,342.44075 526.47525,339.2045 526.47525,335.21525 C526.47525,334.499 526.3665,333.809 526.16625,333.1565 L528,332.75 L528,343.25 L528,343.25 Z M528,329.75 C528,330.16475 527.66475,330.5 527.25,330.5 L524.25,330.5 C523.83525,330.5 523.5,330.16475 523.5,329.75 L523.5,326.75 C523.5,326.33525 523.83525,326 524.25,326 L527.25,326 C527.66475,326 528,326.33525 528,326.75 L528,329.75 L528,329.75 Z" id="icon-instagram" sketch:type="MSShapeGroup"></path>
        </g>
    </g>
</svg>