<?xml version="1.0" encoding="UTF-8" standalone="no"?>
<svg width="80px" height="80px" viewBox="0 0 80 80" version="1.1" xmlns="http://www.w3.org/2000/svg" xmlns:xlink="http://www.w3.org/1999/xlink" xmlns:sketch="http://www.bohemiancoding.com/sketch/ns">
    <!-- Generator: Sketch 3.5.1 (25234) - http://www.bohemiancoding.com/sketch -->
    <title>icon-play</title>
    <desc>Created with Sketch.</desc>
    <defs></defs>
    <g id="Page-1" stroke="none" stroke-width="1" fill="none" fill-rule="evenodd" sketch:type="MSPage">
        <g id="icon-assets" sketch:type="MSArtboardGroup" transform="translate(-113.000000, -10.000000)" fill="#FFFFFF">
            <path d="M153,87 L153,87 C173.434536,87 190,70.4345357 190,50 C190,29.5654643 173.434536,13 153,13 C132.565464,13 116,29.5654643 116,50 C116,70.4345357 132.565464,87 153,87 L153,87 Z M153,90 C130.90861,90 113,72.09139 113,50 C113,27.90861 130.90861,10 153,10 C175.09139,10 193,27.90861 193,50 C193,72.09139 175.09139,90 153,90 Z M169.257402,49.012528 C170.219812,49.5578937 170.228275,50.4373107 169.257402,50.987472 L142.742598,66.012528 C141.780188,66.5578937 141,66.1080589 141,65.0000796 L141,34.9999204 C141,33.8953949 141.771725,33.4373107 142.742598,33.987472 L169.257402,49.012528 Z" id="icon-play" sketch:type="MSShapeGroup"></path>
        </g>
    </g>
</svg>