<?xml version="1.0" encoding="UTF-8" standalone="no"?>
<svg width="120px" height="76px" viewBox="0 0 120 76" version="1.1" xmlns="http://www.w3.org/2000/svg" xmlns:xlink="http://www.w3.org/1999/xlink" xmlns:sketch="http://www.bohemiancoding.com/sketch/ns">
    <!-- Generator: Sketch 3.5.1 (25234) - http://www.bohemiancoding.com/sketch -->
    <title>icon-truck</title>
    <desc>Created with Sketch.</desc>
    <defs></defs>
    <g id="Page-1" stroke="none" stroke-width="1" fill="none" fill-rule="evenodd" sketch:type="MSPage">
        <g id="icon-assets" sketch:type="MSArtboardGroup" transform="translate(-427.000000, -113.000000)" fill="#17AA66">
            <path d="M427,140 L427,177 L437.141778,177 C437.34379,175.587709 437.756581,174.243413 438.347263,172.999999 L431,173 L431,159 L427,159 L427,140 Z M523,121 L539,121 L547,177 L536.858222,177 C536.65621,175.587709 536.243419,174.243413 535.652737,172.999999 L542.471619,173 L535.557434,125 L523,125 L523,121 Z M464.858222,177 L509.141778,177 C509.34379,175.587709 509.756581,174.243413 510.347263,172.999999 L463.652738,173 C464.243419,174.243413 464.65621,175.587709 464.858222,177 Z M451,189 C445.477153,189 441,184.522847 441,179 C441,173.477153 445.477153,169 451,169 C456.522847,169 461,173.477153 461,179 C461,184.522847 456.522847,189 451,189 Z M451,185 C454.313708,185 457,182.313708 457,179 C457,175.686292 454.313708,173 451,173 C447.686292,173 445,175.686292 445,179 C445,182.313708 447.686292,185 451,185 Z M523,189 C517.477153,189 513,184.522847 513,179 C513,173.477153 517.477153,169 523,169 C528.522847,169 533,173.477153 533,179 C533,184.522847 528.522847,189 523,189 Z M523,185 C526.313708,185 529,182.313708 529,179 C529,175.686292 526.313708,173 523,173 C519.686292,173 517,175.686292 517,179 C517,182.313708 519.686292,185 523,185 Z M427,113 L519,113 L519,155 L427,155 L427,113 Z M431,117 L431,151 L515,151 L515,117 L431,117 Z" id="icon-truck" sketch:type="MSShapeGroup"></path>
        </g>
    </g>
</svg>