<?xml version="1.0" encoding="UTF-8" standalone="no"?>
<svg width="120px" height="72px" viewBox="0 0 120 72" version="1.1" xmlns="http://www.w3.org/2000/svg" xmlns:xlink="http://www.w3.org/1999/xlink" xmlns:sketch="http://www.bohemiancoding.com/sketch/ns">
    <!-- Generator: Sketch 3.5.1 (25234) - http://www.bohemiancoding.com/sketch -->
    <title>icon-box</title>
    <desc>Created with Sketch.</desc>
    <defs></defs>
    <g id="Page-1" stroke="none" stroke-width="1" fill="none" fill-rule="evenodd" sketch:type="MSPage">
        <g id="icon-assets" sketch:type="MSArtboardGroup" transform="translate(-599.000000, -12.000000)" fill="#17AA66">
            <g id="icon-box" sketch:type="MSLayerGroup" transform="translate(599.000000, 12.000000)">
                <path d="M10,20 L10,68 L110,68 L110,20 L10,20 Z M6,16 L114,16 L114,72 L6,72 L6,16 L6,16 Z" id="main" sketch:type="MSShapeGroup"></path>
                <path d="M4,4 L4,16 L116,16 L116,4 L4,4 Z M0,0 L120,0 L120,20 L0,20 L0,0 L0,0 Z" id="top" sketch:type="MSShapeGroup"></path>
                <path d="M54,4 L54,68 L66,68 L66,4 L54,4 Z M50,0 L70,0 L70,72 L50,72 L50,0 L50,0 Z" id="ribbon" sketch:type="MSShapeGroup"></path>
            </g>
        </g>
    </g>
</svg>