<?xml version="1.0" encoding="UTF-8" standalone="no"?>
<svg width="22px" height="42px" viewBox="0 0 22 42" version="1.1" xmlns="http://www.w3.org/2000/svg" xmlns:xlink="http://www.w3.org/1999/xlink">
    <!-- Generator: Sketch 3.6.1 (26313) - http://www.bohemiancoding.com/sketch -->
    <title>icon-arrow-right-grey</title>
    <desc>Created with Sketch.</desc>
    <defs></defs>
    <g id="Assets" stroke="none" stroke-width="1" fill="none" fill-rule="evenodd">
        <g id="Artboard-29" transform="translate(-402.000000, -272.000000)" fill="#DDDDDD">
            <path d="M423.573335,292.183747 L403.667996,272.278408 C403.282339,271.892751 402.670369,271.899067 402.289022,272.280414 C401.905016,272.66442 401.906777,273.279149 402.287016,273.659388 L421.628149,293.000521 L402.287016,312.341655 C401.901359,312.727312 401.907675,313.339282 402.289022,313.720629 C402.673028,314.104635 403.287757,314.102874 403.667996,313.722635 L423.573035,293.817597 C423.621537,293.784026 423.66774,293.745608 423.710978,293.70237 C423.893257,293.520092 423.988615,293.285827 423.997833,293.049332 C424.014211,292.779867 423.917693,292.505388 423.710978,292.298673 C423.667794,292.255489 423.621693,292.217184 423.573335,292.183747 Z" id="icon-arrow-right-grey"></path>
        </g>
    </g>
</svg>