<?xml version="1.0" encoding="UTF-8" standalone="no"?>
<svg width="24px" height="24px" viewBox="0 0 24 24" version="1.1" xmlns="http://www.w3.org/2000/svg" xmlns:xlink="http://www.w3.org/1999/xlink">
    <!-- Generator: Sketch 39.1 (31720) - http://www.bohemiancoding.com/sketch -->
    <title>icon-facebook</title>
    <desc>Created with Sketch.</desc>
    <defs></defs>
    <g id="Page-1" stroke="none" stroke-width="1" fill="none" fill-rule="evenodd">
        <g id="icon-assets" transform="translate(-235.000000, -311.000000)" fill="#FFFFFF">
            <path d="M259,333.5 C259,334.328 258.328,335 257.5,335 L236.5,335 C235.672,335 235,334.328 235,333.5 L235,312.5 C235,311.672 235.672,311 236.5,311 L257.5,311 C258.328,311 259,311.672 259,312.5 L259,333.5 Z M251.5,335 L251.5,326 L254.5,326 L255.25,322.25 L251.5,322.25 L251.5,320.75 C251.5,319.25 252.2515,318.5 253.75,318.5 L255.25,318.5 L255.25,314.75 L252.25,314.75 C249.49375,314.75 247.75,316.91075 247.75,320 L247.75,322.25 L244.75,322.25 L244.75,326 L247.75,326 L247.75,335 L251.5,335 Z" id="icon-facebook"></path>
        </g>
    </g>
</svg>