<?xml version="1.0" encoding="UTF-8" standalone="no"?>
<svg width="120px" height="72px" viewBox="0 0 120 72" version="1.1" xmlns="http://www.w3.org/2000/svg" xmlns:xlink="http://www.w3.org/1999/xlink" xmlns:sketch="http://www.bohemiancoding.com/sketch/ns">
    <!-- Generator: Sketch 3.5.1 (25234) - http://www.bohemiancoding.com/sketch -->
    <title>icon-user-information</title>
    <desc>Created with Sketch.</desc>
    <defs></defs>
    <g id="Page-1" stroke="none" stroke-width="1" fill="none" fill-rule="evenodd" sketch:type="MSPage">
        <g id="icon-assets" sketch:type="MSArtboardGroup" transform="translate(-426.000000, -10.000000)">
            <g id="icon-user-information" sketch:type="MSLayerGroup" transform="translate(426.000000, 10.000000)">
                <path d="M4,4 L4,68 L116,68 L116,4 L4,4 Z M120,0 L120,72 L0,72 L0,0 L120,0 Z M20,16 L52,16 L52,20 L20,20 L20,16 Z M16,28 L52,28 L52,32 L16,32 L16,28 Z M26,40 L52,40 L52,44 L26,44 L26,40 Z M28,52 L52,52 L52,56 L28,56 L28,52 Z" id="card" fill="#17AA66" sketch:type="MSShapeGroup"></path>
                <path d="M98.5407595,35.9372852 C101.827006,38.0802033 104,41.7915317 104,46 L104,58 L100,58 L100,54 L72,54 L72,58 L68,58 L68,46 C68,41.7865261 70.1784402,38.080251 73.4608605,35.9393265 C74.3250405,37.0280848 75.3280244,38.001694 76.4430633,38.8334053 C73.8144315,40.1444972 72,42.8649422 72,46 L72,54 L100,54 L100,46 C100,42.8635359 98.1888067,40.1427387 95.5585083,38.8322328 C96.6736148,38.0002592 97.676619,37.0263562 98.5407595,35.9372852 Z M86,38 C79.372583,38 74,32.627417 74,26 C74,19.372583 79.372583,14 86,14 C92.627417,14 98,19.372583 98,26 C98,32.627417 92.627417,38 86,38 Z M86,34 C90.418278,34 94,30.418278 94,26 C94,21.581722 90.418278,18 86,18 C81.581722,18 78,21.581722 78,26 C78,30.418278 81.581722,34 86,34 Z" id="person" fill="#03AA64" sketch:type="MSShapeGroup"></path>
            </g>
        </g>
    </g>
</svg>