<?xml version="1.0" encoding="UTF-8" standalone="no"?>
<svg width="166px" height="38px" viewBox="0 0 166 38" version="1.1" xmlns="http://www.w3.org/2000/svg" xmlns:xlink="http://www.w3.org/1999/xlink" xmlns:sketch="http://www.bohemiancoding.com/sketch/ns">
    <!-- Generator: Sketch 3.5.1 (25234) - http://www.bohemiancoding.com/sketch -->
    <title>logo-black</title>
    <desc>Created with Sketch.</desc>
    <defs></defs>
    <g id="Page-1" stroke="none" stroke-width="1" fill="none" fill-rule="evenodd" sketch:type="MSPage">
        <g id="logo-assets" sketch:type="MSArtboardGroup" transform="translate(-489.000000, -120.000000)" fill="#1D1D1B">
            <path d="M533.707278,144.505214 L536.461452,144.505214 L536.461452,129.366634 L531.754173,129.366634 L531.754173,132.143597 L529,132.143597 L529,127 L546.835788,127 L546.835788,132.143597 L544.082616,132.143597 L544.082616,129.366634 L539.374837,129.366634 L539.374837,144.505214 L542.12851,144.505214 L542.12851,146.962926 L533.707278,146.962926 L533.707278,144.505214 Z M544.372553,143.473506 C544.372553,141.077461 546.614042,139.529591 549.784271,139.529591 C551.225192,139.529591 552.825827,139.833188 553.562309,140.045706 L553.562309,138.559029 C553.562309,137.800985 553.33801,137.193791 552.954499,136.738396 C552.37823,136.071431 551.416447,135.737474 550.072655,135.737474 C549.207501,135.737474 548.695318,135.919633 548.279764,136.13215 C548.375392,136.344668 548.439477,136.617431 548.439477,136.860309 C548.439477,137.709432 547.76708,138.346511 546.838342,138.346511 C545.878561,138.346511 545.205163,137.709432 545.205163,136.799589 C545.205163,135.252194 546.998055,133.644078 550.520753,133.644078 C552.666114,133.644078 554.235207,134.250798 555.163946,135.282553 C555.868385,136.071431 556.220855,137.102712 556.220855,138.286266 L556.220855,144.778973 L557.503566,144.778973 L557.503566,146.962974 L553.626896,146.962974 L553.626896,145.384744 C552.505901,146.386139 550.744551,147.205377 548.887575,147.205377 C546.358201,147.205377 544.372553,145.840139 544.372553,143.473506 Z M553.562309,143.459749 L553.562309,141.960739 C552.376228,141.553254 551.448991,141.271953 550.200826,141.271953 C548.247721,141.271953 547.158268,141.987303 547.158268,143.261462 C547.158268,144.444542 548.087508,145.155623 549.688643,145.155623 C551.161107,145.155623 552.505901,144.339706 553.562309,143.459749 Z M559.430286,144.778546 L560.281922,144.778546 L560.281922,129.452115 L558.13656,129.452115 L558.13656,127.207395 L563.035094,127.207395 L563.035094,140.136832 L568.030756,136.010759 L565.693639,136.010759 L565.693639,133.887478 L573.202654,133.887478 L573.202654,136.132198 L571.136399,136.132198 L567.293774,139.256875 L571.232026,144.717826 L573.202654,144.717826 L573.202654,146.963021 L569.599849,146.963021 L565.277084,140.713192 L563.035094,142.533351 L563.035094,144.808905 L565.052284,144.808905 L565.052284,146.963021 L559.430286,146.963021 L559.430286,144.778546 Z M576.547065,141.259145 C576.931578,143.747217 578.85264,144.960656 581.542227,144.960656 C583.303076,144.960656 584.808083,144.445016 586.441261,143.565533 L586.217463,145.961578 C584.77604,146.811175 583.014691,147.205851 581.125672,147.205851 C576.675236,147.205851 573.665221,144.474901 573.665221,140.470267 C573.665221,136.799589 576.322766,133.644078 580.517861,133.644078 C584.77604,133.644078 587.01753,136.526352 587.01753,139.864022 C587.01753,140.348828 586.953945,140.864943 586.889359,141.259145 L576.547065,141.259145 Z M576.547065,139.317547 L584.264358,139.317547 C584.136187,137.224151 582.791393,135.798668 580.453775,135.798668 C578.596298,135.798668 576.899034,136.951388 576.547065,139.317547 Z M589.483819,144.505214 L592.045235,144.505214 L592.045235,129.457713 L589.483819,129.457713 L589.483819,127 L597.393368,127 C604.885861,127 609.528553,130.82295 609.528553,136.799542 C609.528553,142.836853 605.141202,146.962926 597.200611,146.962926 L589.483819,146.962926 L589.483819,144.505214 Z M597.585124,144.505214 C603.509025,144.505214 606.550582,141.410896 606.550582,136.768708 C606.550582,132.157828 602.964799,129.457713 597.328782,129.457713 L594.959122,129.457713 L594.959122,144.505214 L597.585124,144.505214 Z M626.18577,129.215072 C626.18577,128.183791 627.114008,127.334194 628.20296,127.334194 C629.259369,127.334194 630.188108,128.183791 630.188108,129.215072 C630.188108,130.276713 629.227326,131.12631 628.170917,131.12631 C627.081965,131.12631 626.18577,130.276713 626.18577,129.215072 Z M625.735169,144.778688 L627.114008,144.778688 L627.114008,136.13234 L625.303593,136.13234 L625.303593,133.887145 L629.868181,133.887145 L629.868181,144.778688 L631.046753,144.778688 L631.046753,146.962689 L625.735169,146.962689 L625.735169,144.778688 Z M632.813109,144.778546 L634.540913,144.778546 L634.540913,129.452115 L632.730498,129.452115 L632.730498,127.207395 L637.294085,127.207395 L637.294085,144.778546 L639.503532,144.778546 L639.503532,146.963021 L632.813109,146.963021 L632.813109,144.778546 Z M642.000162,153 C640.463112,153 639.37466,152.180762 639.37466,151.149481 C639.37466,150.208805 640.047057,149.662805 640.879167,149.662805 C641.680235,149.662805 642.191917,150.208805 642.384675,150.75528 C642.832272,150.603481 643.281371,150.269524 643.793554,149.571726 C644.049395,149.177524 644.337279,148.691769 644.657706,148.085523 L645.586445,146.26489 L640.495154,136.131866 L639.133338,136.131866 L639.133338,133.887145 L645.426231,133.887145 L645.426231,136.041261 L643.312913,136.041261 C643.312913,136.041261 646.930738,143.807652 646.899196,143.807652 L650.549064,136.041261 L648.340118,136.041261 L648.340118,133.887145 L655,133.887145 L655,136.131866 L653.207109,136.131866 L646.706939,149.268129 C646.35497,149.936042 646.0025,150.512402 645.618988,151.028043 C644.593621,152.302201 643.409541,153 642.000162,153 Z M610.569992,143.473506 C610.569992,141.077461 612.811482,139.529591 615.98171,139.529591 C617.422632,139.529591 619.023267,139.833188 619.759749,140.045706 L619.759749,138.559029 C619.759749,137.800985 619.53545,137.193791 619.151938,136.738396 C618.57567,136.071431 617.613887,135.737474 616.270095,135.737474 C615.404941,135.737474 614.892758,135.919633 614.477204,136.13215 C614.572831,136.344668 614.636917,136.617431 614.636917,136.860309 C614.636917,137.709432 613.96452,138.346511 613.035781,138.346511 C612.076001,138.346511 611.402603,137.709432 611.402603,136.799589 C611.402603,135.252194 613.195494,133.644078 616.718192,133.644078 C618.863554,133.644078 620.432646,134.250798 621.360884,135.282553 C622.065825,136.071431 622.418295,137.102712 622.418295,138.286266 L622.418295,144.778973 L623.701006,144.778973 L623.701006,146.962974 L619.824335,146.962974 L619.824335,145.384744 C618.70334,146.386139 616.941991,147.205377 615.085014,147.205377 C612.555641,147.205377 610.569992,145.840139 610.569992,143.473506 Z M619.759749,143.459749 L619.759749,141.960739 C618.573667,141.553254 617.64643,141.271953 616.398266,141.271953 C614.445161,141.271953 613.355708,141.987303 613.355708,143.261462 C613.355708,144.444542 614.284947,145.155623 615.886083,145.155623 C617.358546,145.155623 618.70334,144.339706 619.759749,143.459749 Z M503.749179,146 L509,146 L509,142.944469 L503.749179,142.944469 L500.792772,142.944469 L495.77046,142.944469 C493.667288,142.944469 491.956407,141.176224 491.956407,138.997973 C491.956407,136.824283 493.667288,135.056038 495.77046,135.056038 L498,135.056038 L498,132 L495.77046,132 C492.036826,132 489,135.138648 489,138.997973 C489,142.861352 492.036826,146 495.77046,146 L500.792772,146 L503.749179,146 Z M515.203594,132 L512.24677,132 L507,132 L507,135.055531 L512.24677,135.055531 L515.203594,135.055531 L520.225292,135.055531 C522.328904,135.055531 524.043176,136.823776 524.043176,138.997973 C524.043176,141.175717 523.098757,142.943962 520.995146,142.943962 L518,142.943962 L518,146 L520.995146,146 C524.729178,146 527,142.861352 527,138.997973 C527,135.138648 523.959325,132 520.225292,132 L515.203594,132 Z M511.944358,143.247566 L511.944358,146.204625 L511.944358,151.228045 C511.944358,153.331682 510.176049,155.042941 508.002281,155.042941 C505.828006,155.042941 504.055642,153.331682 504.055642,151.228045 L504.055642,149 L501,149 L501,151.228045 C501,154.962503 504.143323,158 508.002281,158 C511.861239,158 515,154.962503 515,151.228045 L515,146.204625 L515,143.247566 L515,138 L511.944358,138 L511.944358,143.247566 Z M504.055642,134.753592 L504.055642,131.797185 L504.055642,126.774874 C504.055642,124.671701 505.828006,122.956407 508.001774,122.956407 C510.176049,122.956407 511.944358,124.671701 511.944358,126.774874 L511.944358,129 L515,129 L515,126.774874 C515,123.04124 511.861239,120 508.001774,120 C504.143323,120 501,123.04124 501,126.774874 L501,131.797185 L501,134.753592 L501,140 L504.055642,140 L504.055642,134.753592 Z" id="logo-black" sketch:type="MSShapeGroup"></path>
        </g>
    </g>
</svg>