<?xml version="1.0" encoding="UTF-8" standalone="no"?>
<svg width="166px" height="38px" viewBox="0 0 166 38" version="1.1" xmlns="http://www.w3.org/2000/svg" xmlns:xlink="http://www.w3.org/1999/xlink" xmlns:sketch="http://www.bohemiancoding.com/sketch/ns">
    <!-- Generator: Sketch 3.5.1 (25234) - http://www.bohemiancoding.com/sketch -->
    <title>logo-white</title>
    <desc>Created with Sketch.</desc>
    <defs></defs>
    <g id="Page-1" stroke="none" stroke-width="1" fill="none" fill-rule="evenodd" sketch:type="MSPage">
        <g id="logo-assets" sketch:type="MSArtboardGroup" transform="translate(-88.000000, -179.000000)" fill="#FFFFFF">
            <path d="M132.707278,203.505214 L135.461452,203.505214 L135.461452,188.366634 L130.754173,188.366634 L130.754173,191.143597 L128,191.143597 L128,186 L145.835788,186 L145.835788,191.143597 L143.082616,191.143597 L143.082616,188.366634 L138.374837,188.366634 L138.374837,203.505214 L141.12851,203.505214 L141.12851,205.962926 L132.707278,205.962926 L132.707278,203.505214 Z M143.372553,202.473506 C143.372553,200.077461 145.614042,198.529591 148.784271,198.529591 C150.225192,198.529591 151.825827,198.833188 152.562309,199.045706 L152.562309,197.559029 C152.562309,196.800985 152.33801,196.193791 151.954499,195.738396 C151.37823,195.071431 150.416447,194.737474 149.072655,194.737474 C148.207501,194.737474 147.695318,194.919633 147.279764,195.13215 C147.375392,195.344668 147.439477,195.617431 147.439477,195.860309 C147.439477,196.709432 146.76708,197.346511 145.838342,197.346511 C144.878561,197.346511 144.205163,196.709432 144.205163,195.799589 C144.205163,194.252194 145.998055,192.644078 149.520753,192.644078 C151.666114,192.644078 153.235207,193.250798 154.163946,194.282553 C154.868385,195.071431 155.220855,196.102712 155.220855,197.286266 L155.220855,203.778973 L156.503566,203.778973 L156.503566,205.962974 L152.626896,205.962974 L152.626896,204.384744 C151.505901,205.386139 149.744551,206.205377 147.887575,206.205377 C145.358201,206.205377 143.372553,204.840139 143.372553,202.473506 Z M152.562309,202.459749 L152.562309,200.960739 C151.376228,200.553254 150.448991,200.271953 149.200826,200.271953 C147.247721,200.271953 146.158268,200.987303 146.158268,202.261462 C146.158268,203.444542 147.087508,204.155623 148.688643,204.155623 C150.161107,204.155623 151.505901,203.339706 152.562309,202.459749 Z M158.430286,203.778546 L159.281922,203.778546 L159.281922,188.452115 L157.13656,188.452115 L157.13656,186.207395 L162.035094,186.207395 L162.035094,199.136832 L167.030756,195.010759 L164.693639,195.010759 L164.693639,192.887478 L172.202654,192.887478 L172.202654,195.132198 L170.136399,195.132198 L166.293774,198.256875 L170.232026,203.717826 L172.202654,203.717826 L172.202654,205.963021 L168.599849,205.963021 L164.277084,199.713192 L162.035094,201.533351 L162.035094,203.808905 L164.052284,203.808905 L164.052284,205.963021 L158.430286,205.963021 L158.430286,203.778546 Z M175.547065,200.259145 C175.931578,202.747217 177.85264,203.960656 180.542227,203.960656 C182.303076,203.960656 183.808083,203.445016 185.441261,202.565533 L185.217463,204.961578 C183.77604,205.811175 182.014691,206.205851 180.125672,206.205851 C175.675236,206.205851 172.665221,203.474901 172.665221,199.470267 C172.665221,195.799589 175.322766,192.644078 179.517861,192.644078 C183.77604,192.644078 186.01753,195.526352 186.01753,198.864022 C186.01753,199.348828 185.953945,199.864943 185.889359,200.259145 L175.547065,200.259145 Z M175.547065,198.317547 L183.264358,198.317547 C183.136187,196.224151 181.791393,194.798668 179.453775,194.798668 C177.596298,194.798668 175.899034,195.951388 175.547065,198.317547 Z M188.483819,203.505214 L191.045235,203.505214 L191.045235,188.457713 L188.483819,188.457713 L188.483819,186 L196.393368,186 C203.885861,186 208.528553,189.82295 208.528553,195.799542 C208.528553,201.836853 204.141202,205.962926 196.200611,205.962926 L188.483819,205.962926 L188.483819,203.505214 Z M196.585124,203.505214 C202.509025,203.505214 205.550582,200.410896 205.550582,195.768708 C205.550582,191.157828 201.964799,188.457713 196.328782,188.457713 L193.959122,188.457713 L193.959122,203.505214 L196.585124,203.505214 Z M225.18577,188.215072 C225.18577,187.183791 226.114008,186.334194 227.20296,186.334194 C228.259369,186.334194 229.188108,187.183791 229.188108,188.215072 C229.188108,189.276713 228.227326,190.12631 227.170917,190.12631 C226.081965,190.12631 225.18577,189.276713 225.18577,188.215072 Z M224.735169,203.778688 L226.114008,203.778688 L226.114008,195.13234 L224.303593,195.13234 L224.303593,192.887145 L228.868181,192.887145 L228.868181,203.778688 L230.046753,203.778688 L230.046753,205.962689 L224.735169,205.962689 L224.735169,203.778688 Z M231.813109,203.778546 L233.540913,203.778546 L233.540913,188.452115 L231.730498,188.452115 L231.730498,186.207395 L236.294085,186.207395 L236.294085,203.778546 L238.503532,203.778546 L238.503532,205.963021 L231.813109,205.963021 L231.813109,203.778546 Z M241.000162,212 C239.463112,212 238.37466,211.180762 238.37466,210.149481 C238.37466,209.208805 239.047057,208.662805 239.879167,208.662805 C240.680235,208.662805 241.191917,209.208805 241.384675,209.75528 C241.832272,209.603481 242.281371,209.269524 242.793554,208.571726 C243.049395,208.177524 243.337279,207.691769 243.657706,207.085523 L244.586445,205.26489 L239.495154,195.131866 L238.133338,195.131866 L238.133338,192.887145 L244.426231,192.887145 L244.426231,195.041261 L242.312913,195.041261 C242.312913,195.041261 245.930738,202.807652 245.899196,202.807652 L249.549064,195.041261 L247.340118,195.041261 L247.340118,192.887145 L254,192.887145 L254,195.131866 L252.207109,195.131866 L245.706939,208.268129 C245.35497,208.936042 245.0025,209.512402 244.618988,210.028043 C243.593621,211.302201 242.409541,212 241.000162,212 Z M209.569992,202.473506 C209.569992,200.077461 211.811482,198.529591 214.98171,198.529591 C216.422632,198.529591 218.023267,198.833188 218.759749,199.045706 L218.759749,197.559029 C218.759749,196.800985 218.53545,196.193791 218.151938,195.738396 C217.57567,195.071431 216.613887,194.737474 215.270095,194.737474 C214.404941,194.737474 213.892758,194.919633 213.477204,195.13215 C213.572831,195.344668 213.636917,195.617431 213.636917,195.860309 C213.636917,196.709432 212.96452,197.346511 212.035781,197.346511 C211.076001,197.346511 210.402603,196.709432 210.402603,195.799589 C210.402603,194.252194 212.195494,192.644078 215.718192,192.644078 C217.863554,192.644078 219.432646,193.250798 220.360884,194.282553 C221.065825,195.071431 221.418295,196.102712 221.418295,197.286266 L221.418295,203.778973 L222.701006,203.778973 L222.701006,205.962974 L218.824335,205.962974 L218.824335,204.384744 C217.70334,205.386139 215.941991,206.205377 214.085014,206.205377 C211.555641,206.205377 209.569992,204.840139 209.569992,202.473506 Z M218.759749,202.459749 L218.759749,200.960739 C217.573667,200.553254 216.64643,200.271953 215.398266,200.271953 C213.445161,200.271953 212.355708,200.987303 212.355708,202.261462 C212.355708,203.444542 213.284947,204.155623 214.886083,204.155623 C216.358546,204.155623 217.70334,203.339706 218.759749,202.459749 Z M102.749179,205 L108,205 L108,201.944469 L102.749179,201.944469 L99.792772,201.944469 L94.7704605,201.944469 C92.6672878,201.944469 90.9564066,200.176224 90.9564066,197.997973 C90.9564066,195.824283 92.6672878,194.056038 94.7704605,194.056038 L97,194.056038 L97,191 L94.7704605,191 C91.0368264,191 88,194.138648 88,197.997973 C88,201.861352 91.0368264,205 94.7704605,205 L99.792772,205 L102.749179,205 Z M114.203594,191 L111.24677,191 L106,191 L106,194.055531 L111.24677,194.055531 L114.203594,194.055531 L119.225292,194.055531 C121.328904,194.055531 123.043176,195.823776 123.043176,197.997973 C123.043176,200.175717 122.098757,201.943962 119.995146,201.943962 L117,201.943962 L117,205 L119.995146,205 C123.729178,205 126,201.861352 126,197.997973 C126,194.138648 122.959325,191 119.225292,191 L114.203594,191 Z M110.944358,202.247566 L110.944358,205.204625 L110.944358,210.228045 C110.944358,212.331682 109.176049,214.042941 107.002281,214.042941 C104.828006,214.042941 103.055642,212.331682 103.055642,210.228045 L103.055642,208 L100,208 L100,210.228045 C100,213.962503 103.143323,217 107.002281,217 C110.861239,217 114,213.962503 114,210.228045 L114,205.204625 L114,202.247566 L114,197 L110.944358,197 L110.944358,202.247566 Z M103.055642,193.753592 L103.055642,190.797185 L103.055642,185.774874 C103.055642,183.671701 104.828006,181.956407 107.001774,181.956407 C109.176049,181.956407 110.944358,183.671701 110.944358,185.774874 L110.944358,188 L114,188 L114,185.774874 C114,182.04124 110.861239,179 107.001774,179 C103.143323,179 100,182.04124 100,185.774874 L100,190.797185 L100,193.753592 L100,199 L103.055642,199 L103.055642,193.753592 Z" id="logo-white" sketch:type="MSShapeGroup"></path>
        </g>
    </g>
</svg>