<?xml version="1.0" encoding="UTF-8" standalone="no"?>
<svg width="166px" height="38px" viewBox="0 0 166 38" version="1.1" xmlns="http://www.w3.org/2000/svg" xmlns:xlink="http://www.w3.org/1999/xlink" xmlns:sketch="http://www.bohemiancoding.com/sketch/ns">
    <!-- Generator: Sketch 3.5.1 (25234) - http://www.bohemiancoding.com/sketch -->
    <title>logo-color</title>
    <desc>Created with Sketch.</desc>
    <defs></defs>
    <g id="Page-1" stroke="none" stroke-width="1" fill="none" fill-rule="evenodd" sketch:type="MSPage">
        <g id="logo-assets" sketch:type="MSArtboardGroup" transform="translate(-489.000000, -238.000000)">
            <g id="logo-color" sketch:type="MSLayerGroup" transform="translate(489.000000, 238.000000)">
                <path d="M44.7072782,24.5052135 L47.4614516,24.5052135 L47.4614516,9.36663352 L42.7541733,9.36663352 L42.7541733,12.1435974 L40,12.1435974 L40,7 L57.8357881,7 L57.8357881,12.1435974 L55.0826161,12.1435974 L55.0826161,9.36663352 L50.3748372,9.36663352 L50.3748372,24.5052135 L53.1285099,24.5052135 L53.1285099,26.9629261 L44.7072782,26.9629261 L44.7072782,24.5052135 Z M55.3725528,23.4735055 C55.3725528,21.077461 57.6140424,19.5295907 60.7842706,19.5295907 C62.2251924,19.5295907 63.8258272,19.8331877 64.5623095,20.0457056 L64.5623095,18.559029 C64.5623095,17.8009852 64.3380103,17.1937912 63.9544988,16.7383957 C63.3782303,16.071431 62.4164475,15.7374743 61.0726552,15.7374743 C60.2075014,15.7374743 59.6953182,15.9196325 59.279764,16.1321504 C59.3753915,16.3446684 59.439477,16.6174313 59.439477,16.8603089 C59.439477,17.7094318 58.7670802,18.3465111 57.8383415,18.3465111 C56.8785614,18.3465111 56.2051633,17.7094318 56.2051633,16.7995895 C56.2051633,15.2521935 57.9980545,13.6440781 61.5207529,13.6440781 C63.6661142,13.6440781 65.235207,14.2507978 66.1639456,15.2825532 C66.8683852,16.071431 67.2208553,17.1027121 67.2208553,18.2862661 L67.2208553,24.7789726 L68.5035661,24.7789726 L68.5035661,26.9629736 L64.6268956,26.9629736 L64.6268956,25.3847435 C63.5059005,26.3861393 61.7445514,27.2053768 59.8875747,27.2053768 C57.3582012,27.2053768 55.3725528,25.840139 55.3725528,23.4735055 Z M64.5623095,23.4597488 L64.5623095,21.9607386 C63.3762276,21.5532545 62.4489909,21.2719529 61.2008262,21.2719529 C59.2477213,21.2719529 58.1582682,21.9873033 58.1582682,23.261462 C58.1582682,24.4445415 59.0875076,25.1556227 60.6886431,25.1556227 C62.1611069,25.1556227 63.5059005,24.3397057 64.5623095,23.4597488 Z M70.4302858,24.7785457 L71.2819216,24.7785457 L71.2819216,9.45211505 L69.1365603,9.45211505 L69.1365603,7.2073947 L74.0350936,7.2073947 L74.0350936,20.1368321 L79.0307565,16.0107591 L76.6936394,16.0107591 L76.6936394,13.8874775 L84.2026544,13.8874775 L84.2026544,16.1321979 L82.1363986,16.1321979 L78.2937736,19.2568752 L82.2320261,24.7178263 L84.2026544,24.7178263 L84.2026544,26.963021 L80.5998492,26.963021 L76.2770838,20.7131921 L74.0350936,22.533351 L74.0350936,24.8089054 L76.052284,24.8089054 L76.052284,26.963021 L70.4302858,26.963021 L70.4302858,24.7785457 Z M87.547065,21.2591449 C87.9315778,23.7472172 89.85264,24.9606565 92.5422272,24.9606565 C94.3030756,24.9606565 95.8080829,24.4450159 97.4412611,23.5655333 L97.2174627,25.9615778 C95.7760402,26.8111751 94.014691,27.2058512 92.1256716,27.2058512 C87.6752359,27.2058512 84.6652214,24.4749012 84.6652214,20.470267 C84.6652214,16.7995895 87.3227658,13.6440781 91.5178609,13.6440781 C95.7760402,13.6440781 98.0175297,16.5263522 98.0175297,19.8640217 C98.0175297,20.3488282 97.9539449,20.8649431 97.8893588,21.2591449 L87.547065,21.2591449 Z M87.547065,19.3175471 L95.2643577,19.3175471 C95.1361868,17.2241509 93.7913932,15.7986681 91.4537755,15.7986681 C89.5962981,15.7986681 87.8990344,16.951388 87.547065,19.3175471 Z M100.483819,24.5052135 L103.045235,24.5052135 L103.045235,9.45771262 L100.483819,9.45771262 L100.483819,7 L108.393368,7 C115.885861,7 120.528553,10.8229504 120.528553,16.7995421 C120.528553,22.8368531 116.141202,26.9629261 108.200611,26.9629261 L100.483819,26.9629261 L100.483819,24.5052135 Z M108.585124,24.5052135 C114.509025,24.5052135 117.550582,21.4108959 117.550582,16.768708 C117.550582,12.1578285 113.964799,9.45771262 108.328782,9.45771262 L105.959122,9.45771262 L105.959122,24.5052135 L108.585124,24.5052135 Z M137.18577,9.2150722 C137.18577,8.18379113 138.114008,7.33419389 139.20296,7.33419389 C140.259369,7.33419389 141.188108,8.18379113 141.188108,9.2150722 C141.188108,10.276713 140.227326,11.1263102 139.170917,11.1263102 C138.081965,11.1263102 137.18577,10.276713 137.18577,9.2150722 Z M136.735169,24.778688 L138.114008,24.778688 L138.114008,16.1323402 L136.303593,16.1323402 L136.303593,13.8871455 L140.868181,13.8871455 L140.868181,24.778688 L142.046753,24.778688 L142.046753,26.9626889 L136.735169,26.9626889 L136.735169,24.778688 Z M143.813109,24.7785457 L145.540913,24.7785457 L145.540913,9.45211505 L143.730498,9.45211505 L143.730498,7.2073947 L148.294085,7.2073947 L148.294085,24.7785457 L150.503532,24.7785457 L150.503532,26.963021 L143.813109,26.963021 L143.813109,24.7785457 Z M153.000162,33 C151.463112,33 150.37466,32.1807625 150.37466,31.1494814 C150.37466,30.208805 151.047057,29.6628048 151.879167,29.6628048 C152.680235,29.6628048 153.191917,30.208805 153.384675,30.7552797 C153.832272,30.6034811 154.281371,30.2695244 154.793554,29.5717257 C155.049395,29.177524 155.337279,28.6917688 155.657706,28.0855235 L156.586445,26.2648902 L151.495154,16.1318658 L150.133338,16.1318658 L150.133338,13.8871455 L156.426231,13.8871455 L156.426231,16.0412611 L154.312913,16.0412611 C154.312913,16.0412611 157.930738,23.807652 157.899196,23.807652 L161.549064,16.0412611 L159.340118,16.0412611 L159.340118,13.8871455 L166,13.8871455 L166,16.1318658 L164.207109,16.1318658 L157.706939,29.2681287 C157.35497,29.9360421 157.0025,30.512402 156.618988,31.0280426 C155.593621,32.3022013 154.409541,33 153.000162,33 Z M121.569992,23.4735055 C121.569992,21.077461 123.811482,19.5295907 126.98171,19.5295907 C128.422632,19.5295907 130.023267,19.8331877 130.759749,20.0457056 L130.759749,18.559029 C130.759749,17.8009852 130.53545,17.1937912 130.151938,16.7383957 C129.57567,16.071431 128.613887,15.7374743 127.270095,15.7374743 C126.404941,15.7374743 125.892758,15.9196325 125.477204,16.1321504 C125.572831,16.3446684 125.636917,16.6174313 125.636917,16.8603089 C125.636917,17.7094318 124.96452,18.3465111 124.035781,18.3465111 C123.076001,18.3465111 122.402603,17.7094318 122.402603,16.7995895 C122.402603,15.2521935 124.195494,13.6440781 127.718192,13.6440781 C129.863554,13.6440781 131.432646,14.2507978 132.360884,15.2825532 C133.065825,16.071431 133.418295,17.1027121 133.418295,18.2862661 L133.418295,24.7789726 L134.701006,24.7789726 L134.701006,26.9629736 L130.824335,26.9629736 L130.824335,25.3847435 C129.70334,26.3861393 127.941991,27.2053768 126.085014,27.2053768 C123.555641,27.2053768 121.569992,25.840139 121.569992,23.4735055 Z M130.759749,23.4597488 L130.759749,21.9607386 C129.573667,21.5532545 128.64643,21.2719529 127.398266,21.2719529 C125.445161,21.2719529 124.355708,21.9873033 124.355708,23.261462 C124.355708,24.4445415 125.284947,25.1556227 126.886083,25.1556227 C128.358546,25.1556227 129.70334,24.3397057 130.759749,23.4597488 Z" id="text" fill="#1D1D1B" sketch:type="MSShapeGroup"></path>
                <path d="M15.055642,14.7535919 L15.055642,11.7971853 L15.055642,6.77487373 C15.055642,4.67170107 16.8280056,2.95640661 19.0017739,2.95640661 C21.1760489,2.95640661 22.944358,4.67170107 22.944358,6.77487373 L22.944358,9 L26,9 L26,6.77487373 C26,3.04123964 22.8612388,0 19.0017739,0 C15.1433226,0 12,3.04123964 12,6.77487373 L12,11.7971853 L12,14.7535919 L12,20 L15.055642,20 L15.055642,14.7535919 Z M22.944358,23.247566 L22.944358,26.2046252 L22.944358,31.2280452 C22.944358,33.3316821 21.1760489,35.0429409 19.0022807,35.0429409 C16.8280056,35.0429409 15.055642,33.3316821 15.055642,31.2280452 L15.055642,29 L12,29 L12,31.2280452 C12,34.9625034 15.1433226,38 19.0022807,38 C22.8612388,38 26,34.9625034 26,31.2280452 L26,26.2046252 L26,23.247566 L26,18 L22.944358,18 L22.944358,23.247566 Z M26.2035943,12 L23.2467698,12 L18,12 L18,15.0555314 L23.2467698,15.0555314 L26.2035943,15.0555314 L31.2252924,15.0555314 C33.3289038,15.0555314 35.0431755,16.8237764 35.0431755,18.9979728 C35.0431755,21.1757168 34.098757,22.9439618 31.9951455,22.9439618 L29,22.9439618 L29,26 L31.9951455,26 C35.7291784,26 38,22.8613524 38,18.9979728 C38,15.1386476 34.9593253,12 31.2252924,12 L26.2035943,12 Z M14.7491786,26 L20,26 L20,22.9444686 L14.7491786,22.9444686 L11.792772,22.9444686 L6.77046045,22.9444686 C4.66728779,22.9444686 2.95640661,21.1762236 2.95640661,18.9979728 C2.95640661,16.8242832 4.66728779,15.0560382 6.77046045,15.0560382 L9,15.0560382 L9,12 L6.77046045,12 C3.03682636,12 1.70530257e-13,15.1386476 1.70530257e-13,18.9979728 C1.70530257e-13,22.8613524 3.03682636,26 6.77046045,26 L11.792772,26 L14.7491786,26 Z" id="icon" fill="#1DAA67" sketch:type="MSShapeGroup"></path>
            </g>
        </g>
    </g>
</svg>